custom-analysis
version=1
nRows=14
nColumns=42
inDegrees=no

This file contains tibia displacement and acting force.

Units are S.I. units (seconds, meters, Newtons, ...)
Angles are in degrees.

endheader
time	APT	SIT	knee_angle	aACL_R_force	pACL_R_force	aPCL_R_force	pPCL_R_force	aMCL_R_force	mMCL_R_force	pMCL_R_force	aLCL_R_force	mLCL_R_force	pLCL_R_force	aACL_R_length	pACL_R_length	aPCL_R_length	pPCL_R_length	aMCL_R_length	mMCL_R_length	pMCL_R_length	aLCL_R_length	mLCL_R_length	pLCL_R_length	aACL_R_strain	pACL_R_strain	aPCL_R_strain	pPCL_R_strain	aMCL_R_strain	mMCL_R_strain	pMCL_R_strain	aLCL_R_strain	mLCL_R_strain	pLCL_R_strain	femur_lat_meniscii_force_r	femur_lat_meniscii_torque_r	femur_med_meniscii_force_r	femur_med_meniscii_torque_r	femur_lat_tibia_force_r	femur_lat_tibia_torque_r	femur_med_tibia_force_r	femur_med_tibia_torque_r
      0.00000000	      0.00000000	      0.00000000	     60.00037120	      0.00000000	      0.00000000	    865.74678818	    464.79604671	     23.33303858	      0.83921211	      0.00000000	      0.00000000	      0.00000000	      0.00000000	      0.02839623	      0.02163326	      0.03661187	      0.03349639	      0.06145990	      0.06046437	      0.05715317	      0.05252017	      0.04773620	      0.04339759	     -0.08415512	     -0.14690963	      0.17740851	      0.11328801	      0.05916042	      0.01121971	     -0.05886629	     -0.06175784	     -0.15239015	     -0.17089501	   1433.67905132	    528.01232656	    830.98578340	    337.25655241	    655.99419427	     23.88066589	      0.00000000	      0.00000000
      0.00015418	     -0.00000001	     -0.00000209	     60.00037120	      0.00000000	      0.00000000	    870.69183007	    476.84330433	     36.71808715	     14.14038801	      0.00000000	      0.00000000	      0.00000000	      0.00000000	      0.02839856	      0.02163577	      0.03661322	      0.03349770	      0.06146169	      0.06046615	      0.05715489	      0.05252198	      0.04773798	      0.04339929	     -0.08407996	     -0.14681062	      0.17745192	      0.11333153	      0.05919123	      0.01124959	     -0.05883799	     -0.06172557	     -0.15235861	     -0.17086258	    749.46704634	    280.40483282	    524.03923620	    212.90389683	    494.47130773	     17.94795805	      0.00000000	      0.00000000
      0.00030835	      0.00000038	     -0.00000585	     60.00037120	      0.00000000	      0.00000000	    870.49485508	    475.51457693	     38.61100205	     15.77838611	      0.00000000	      0.00000000	      0.00000000	      0.00000000	      0.02840336	      0.02164086	      0.03661514	      0.03349953	      0.06146478	      0.06046920	      0.05715776	      0.05252495	      0.04774088	      0.04340200	     -0.08392513	     -0.14660988	      0.17751379	      0.11339256	      0.05924445	      0.01130062	     -0.05879061	     -0.06167245	     -0.15230713	     -0.17081085	    642.81033368	    245.98470362	    485.94743622	    197.39174098	    451.38258204	     16.34093052	      0.00000000	      0.00000000
      0.00052627	      0.00000177	     -0.00001168	     60.00037120	      0.00000000	      0.00000000	    869.52257815	    472.13348229	     38.72702083	     15.58347237	      0.00000000	      0.00000000	      0.00000000	      0.00000000	      0.02841191	      0.02164978	      0.03661721	      0.03350143	      0.06146935	      0.06047365	      0.05716184	      0.05252909	      0.04774486	      0.04340559	     -0.08364935	     -0.14625836	      0.17758020	      0.11345565	      0.05932318	      0.01137491	     -0.05872341	     -0.06159848	     -0.15223632	     -0.17074218	    628.91432009	    245.40138306	    494.72661509	    200.83649812	    426.29639143	     15.40287964	      0.00000000	      0.00000000
      0.00083469	      0.00000499	     -0.00002015	     60.00037120	      0.00000000	      0.00000000	    868.60337647	    468.97215956	     38.35667083	     14.90875506	      0.00000000	      0.00000000	      0.00000000	      0.00000000	      0.02842580	      0.02166403	      0.03661902	      0.03350295	      0.06147572	      0.06047973	      0.05716729	      0.05253459	      0.04775010	      0.04341012	     -0.08320151	     -0.14569632	      0.17763840	      0.11350619	      0.05943301	      0.01147671	     -0.05863374	     -0.06150016	     -0.15214343	     -0.17065573	    624.33210546	    247.07424891	    516.92832113	    209.76029971	    408.03042480	     14.72797444	      0.00000000	      0.00000000
      0.00121845	      0.00001013	     -0.00003070	     60.00037120	      0.00000000	      0.00000000	    868.07894989	    467.04005619	     37.76065901	     14.08603179	      0.00000000	      0.00000000	      0.00000000	      0.00000000	      0.02844432	      0.02168284	      0.03662024	      0.03350376	      0.06148334	      0.06048690	      0.05717356	      0.05254114	      0.04775626	      0.04341528	     -0.08260410	     -0.14495448	      0.17767766	      0.11353299	      0.05956429	      0.01159654	     -0.05853052	     -0.06138321	     -0.15203393	     -0.17055711	    633.27509808	    251.72088488	    538.07520770	    218.31086238	    394.20005279	     14.22527617	      0.00000000	      0.00000000
      0.00156513	      0.00001522	     -0.00004012	     60.00037120	      0.00000000	      0.00000000	    868.04039840	    466.59223410	     37.36860615	     13.57974443	      0.00000000	      0.00000000	      0.00000000	      0.00000000	      0.02846145	      0.02170017	      0.03662089	      0.03350400	      0.06148989	      0.06049300	      0.05717882	      0.05254702	      0.04776178	      0.04341985	     -0.08205168	     -0.14427125	      0.17769862	      0.11354101	      0.05967725	      0.01169861	     -0.05844396	     -0.06127818	     -0.15193587	     -0.17046990	    610.20330491	    243.40150493	    545.89462855	    221.44951662	    382.33576441	     13.79310264	      0.00000000	      0.00000000
      0.00191181	      0.00002028	     -0.00004945	     60.00037120	      0.00000000	      0.00000000	    867.77011406	    465.58763881	     36.04156786	     12.17156120	      0.00000000	      0.00000000	      0.00000000	      0.00000000	      0.02847861	      0.02171756	      0.03662148	      0.03350415	      0.06149616	      0.06049881	      0.05718377	      0.05255307	      0.04776748	      0.04342458	     -0.08149827	     -0.14358550	      0.17771740	      0.11354592	      0.05978528	      0.01179577	     -0.05836230	     -0.06117008	     -0.15183473	     -0.17037951	    636.75281442	    253.80591027	    565.17892923	    229.31521762	    379.40239531	     13.69222984	      0.00000000	      0.00000000
      0.00225849	      0.00002517	     -0.00005844	     60.00037120	      0.00000000	      0.00000000	    868.19230839	    466.42035995	     35.91866831	     12.01525627	      0.00000000	      0.00000000	      0.00000000	      0.00000000	      0.02849539	      0.02173462	      0.03662193	      0.03350415	      0.06150192	      0.06050411	      0.05718824	      0.05255913	      0.04777319	      0.04342934	     -0.08095685	     -0.14291278	      0.17773200	      0.11354588	      0.05988451	      0.01188447	     -0.05828878	     -0.06106191	     -0.15173336	     -0.17028858	    632.40755847	    251.87385745	    558.66542798	    226.67817244	    367.39729701	     13.27158623	      0.00000000	      0.00000000
      0.00275821	      0.00003179	     -0.00007106	     60.00037120	      0.00000000	      0.00000000	    869.00495229	    468.10985994	     36.13794487	     12.20215677	      0.00000000	      0.00000000	      0.00000000	      0.00000000	      0.02851904	      0.02175877	      0.03662268	      0.03350421	      0.06150958	      0.06051114	      0.05719409	      0.05256817	      0.04778176	      0.04343657	     -0.08019415	     -0.14196048	      0.17775622	      0.11354801	      0.06001658	      0.01200197	     -0.05819251	     -0.06090024	     -0.15158119	     -0.17015037	    572.24814918	    228.55054555	    540.61109710	    219.34302681	    346.86816481	     12.53716358	      0.00000000	      0.00000000
      0.00301544	      0.00003494	     -0.00007772	     60.00037120	      0.00000000	      0.00000000	    868.50155445	    466.49559449	     34.37997620	     10.38636810	      0.00000000	      0.00000000	      0.00000000	      0.00000000	      0.02853124	      0.02177130	      0.03662339	      0.03350454	      0.06151352	      0.06051477	      0.05719711	      0.05257329	      0.04778663	      0.04344077	     -0.07980075	     -0.14146605	      0.17777886	      0.11355898	      0.06008450	      0.01206262	     -0.05814265	     -0.06080886	     -0.15149462	     -0.17007018	    634.65684032	    251.61385201	    568.35082453	    230.65002138	    350.55635228	     12.66936540	      0.00000000	      0.00000000
      0.00333607	      0.00003875	     -0.00008565	     60.00037120	      0.00000000	      0.00000000	    868.74860781	    466.81288106	     33.92038297	      9.89781765	      0.00000000	      0.00000000	      0.00000000	      0.00000000	      0.02854607	      0.02178659	      0.03662405	      0.03350472	      0.06151793	      0.06051878	      0.05720039	      0.05257954	      0.04779259	      0.04344589	     -0.07932229	     -0.14086331	      0.17780020	      0.11356511	      0.06016045	      0.01212978	     -0.05808864	     -0.06069723	     -0.15138885	     -0.16997226	    624.29523337	    247.22766732	    569.08674840	    230.96357279	    342.80544778	     12.39790849	      0.00000000	      0.00000000
      0.00385352	      0.00004444	     -0.00009817	     60.00037120	      0.00000000	      0.00000000	    868.27821480	    465.01695858	     31.32548874	      7.23561720	      0.00000000	      0.00000000	      0.00000000	      0.00000000	      0.02856946	      0.02181081	      0.03662533	      0.03350520	      0.06152450	      0.06052474	      0.05720520	      0.05259004	      0.04780264	      0.04345464	     -0.07856801	     -0.13990815	      0.17784140	      0.11358093	      0.06027367	      0.01222947	     -0.05800950	     -0.06050962	     -0.15121037	     -0.16980518	    672.65956958	    264.59609759	    605.36028659	    245.75004867	    344.25037514	     12.45507034	      0.00000000	      0.00000000
      0.00414380	      0.00004744	     -0.00010459	     60.00037120	      0.00000000	      0.00000000	    869.16651090	    467.08890510	     32.21462607	      8.14621896	      0.00000000	      0.00000000	      0.00000000	      0.00000000	      0.02858195	      0.02182380	      0.03662572	      0.03350513	      0.06152745	      0.06052736	      0.05720718	      0.05259566	      0.04780802	      0.04345931	     -0.07816526	     -0.13939613	      0.17785395	      0.11357848	      0.06032449	      0.01227316	     -0.05797686	     -0.06040918	     -0.15111482	     -0.16971588	    606.37877077	    239.22306825	    578.54181767	    234.84919341	    328.41332991	     11.88697732	      0.00000000	      0.00000000
